# xmcd
#
# Track frame offsets: 
#        150
#        13495
#        54822
#        70767
#        86100
#        111165
#        139195
#        155627
#        172602
#        197360
#        215977
#
# Disc length: 4016 seconds
#
# Revision: 5
# Processed by: cddbd v1.5.1PL0 Copyright (c) Steve Scherf et al.
# Submitted via: ExactAudioCopy v0.95a5
#
DISCID=970fae0b
DTITLE=Taj Mahal - The Real Thing
DYEAR=1971
DGENRE=Blues
TTITLE0=Fishin' Blues
TTITLE1=Ain't Gwine To Whistle Dixie (Any Mo')
TTITLE2=Sweet Mama Janisse
TTITLE3=Going Up To The Country And Paint My Mailbox Blue
TTITLE4=Big Kneed Gal
TTITLE5=You're Going To Need Somebody On Your Bond
TTITLE6=Tom And Sally Drake
TTITLE7=Diving Duck Blues
TTITLE8=John, Ain' It Hard
TTITLE9=She Caught The Katy And Left Me A Mule To Ride
TTITLE10=You Ain't No Street Walker Mama, Honey But I Do Love The Way 
TTITLE10=You Strut Your Stuff
EXTD=Recorded live at Bill Graham's Fillmore East\nColumbia/Legacy 200
EXTD=0
EXTT0=
EXTT1=
EXTT2=
EXTT3=
EXTT4=
EXTT5=
EXTT6=
EXTT7=
EXTT8=
EXTT9=
EXTT10=
PLAYORDER=
